<svg xmlns="http://www.w3.org/2000/svg" width="39" height="39" viewBox="0 0 39 39"><defs><linearGradient id="j6gua" x1="39" x2="10.47" y1="-7.13" y2="39" gradientUnits="userSpaceOnUse"><stop offset="0" stop-color="#ffde00"/><stop offset="1" stop-color="#ffbf00"/></linearGradient></defs><g><g><path fill="url(#j6gua)" d="M0 19C0 8.507 8.507 0 19 0h1c10.493 0 19 8.507 19 19v1c0 10.493-8.507 19-19 19h-1C8.507 39 0 30.493 0 20z"/></g><g><path d="M28 12.505C28 21.644 20.59 29.003 11.503 29a1.694 1.694 0 0 1-1.656-1.318l-.804-3.496a1.698 1.698 0 0 1 .986-1.942l3.77-1.615a1.702 1.702 0 0 1 1.982.488l.85 1.039-1.263 1.262 1.14 1.393c3.666-1.72 5.588-3.635 7.31-7.307l-1.394-1.14-1.266 1.266-1.04-.85a1.703 1.703 0 0 1-.485-1.982l1.613-3.767a1.694 1.694 0 0 1 1.941-.987l3.496.806zM16.994 22.6a11.542 11.542 0 0 0 4.608-4.607l-.444-.364-4.528 4.526zm9.225-10.03l-3.366-.776-1.561 3.644 1.132.925zm-11.777 9.716l-3.645 1.56.776 3.365 3.795-3.794z"/></g></g></svg>