<svg xmlns="http://www.w3.org/2000/svg" width="170" height="64" viewBox="0 0 170 64"><g><g><path fill="#fff" d="M162.999 55.168h-1.634v4.31h-3.814v-11.42h3.814v4.202h1.742l1.2-2.37c.434-.92 1.116-1.545 2.046-1.877a2.97 2.97 0 0 1 .958-.171c.494 0 .943.035 1.35.107l.546.11v2.91h-.764c-.493 0-.857.214-1.088.646l-1.09 2.154 3.267 5.71h-4.14zm-12.093-7.11h4.032v11.42h-3.813V53.23l-3.704 6.247h-4.03V48.06h3.812v6.248zm-13.29 11.42h-14.27v-11.42h3.813v8.51h2.505v-8.51h3.813v8.51h2.506v-8.51h3.811v8.51h1.634v5.495h-3.595zm-22.002-8.511c-.77 0-1.642.144-2.615.43v5.17h3.268c.581 0 .872-.285.872-.86V51.72a.733.733 0 0 0-.217-.54.744.744 0 0 0-.545-.213zm-2.615 12.175h-3.813V48.059h3.377l.217 1.075a7.92 7.92 0 0 1 2.104-.982c.718-.205 1.325-.312 1.818-.312h.98c.988 0 1.78.295 2.375.885.596.588.893 1.37.893 2.347v4.957c0 1.079-.307 1.923-.925 2.533-.616.611-1.47.915-2.56.915h-4.466zm-9.748-11.529c0-.575-.29-.863-.871-.863h-2.614c-.581 0-.872.287-.872.863v4.31c0 .575.29.863.872.863h2.614c.58 0 .87-.288.87-.863zm3.813 4.633c0 1.078-.309 1.92-.926 2.532-.616.611-1.47.916-2.558.916h-5.011c-1.09 0-1.944-.306-2.561-.916-.619-.611-.926-1.454-.926-2.532V51.29c0-1.078.308-1.92.926-2.533.617-.61 1.47-.916 2.561-.916h5.01c1.089 0 1.943.307 2.56.916.617.612.925 1.455.925 2.533zm-17.7-.43a.725.725 0 0 0-.218-.538.74.74 0 0 0-.545-.217h-3.158v1.833h3.158a.742.742 0 0 0 .763-.753zm-.654-4.418a.724.724 0 0 0-.217-.538.746.746 0 0 0-.545-.217h-2.504v1.94h2.504c.218 0 .4-.071.545-.217a.72.72 0 0 0 .217-.536zm1.2 8.08h-8.281v-11.42h7.627c.971 0 1.76.283 2.363.85.602.567.904 1.203.904 1.908 0 .702-.152 1.278-.458 1.723-.305.446-.734.748-1.285.907.655.114 1.217.431 1.688.947.472.516.708 1.205.708 2.069 0 .862-.302 1.58-.904 2.154-.602.576-1.39.861-2.363.861zm-14.652-7.865c0-.575-.29-.863-.872-.863h-2.613c-.58 0-.873.287-.873.863v4.31c0 .575.291.863.873.863h2.613c.582 0 .872-.288.872-.863zm3.814 4.633c0 1.078-.31 1.92-.926 2.532-.618.611-1.47.916-2.56.916h-5.01c-1.09 0-1.943-.306-2.56-.916-.62-.611-.928-1.454-.928-2.532V51.29c0-1.078.31-1.92.927-2.533.618-.61 1.471-.916 2.56-.916h5.01c1.09 0 1.943.307 2.56.916.618.612.927 1.455.927 2.533zm-13.674-8.187v2.908h-5.556v8.51h-3.813V48.06zM46.99 50.535c-.582 0-.873.288-.873.859v1.178h3.704v-1.178c0-.571-.29-.859-.872-.859zm6.208 8.727c-2.804.288-5.345.431-7.625.431-.987 0-1.779-.295-2.376-.884-.595-.586-.892-1.37-.892-2.348V51.29c0-1.077.31-1.92.926-2.533.618-.61 1.471-.916 2.56-.916h4.359c1.088 0 1.94.307 2.56.916.617.612.925 1.456.925 2.533v3.987h-7.517v.862c0 .215.072.394.217.538a.748.748 0 0 0 .545.216c1.44 0 3.544-.108 6.318-.324zm-18.521-8.295c-.769 0-1.641.144-2.614.43v5.17h3.268c.58 0 .871-.285.871-.86V51.72a.73.73 0 0 0-.216-.54.743.743 0 0 0-.544-.213zm-2.614 12.175H28.25V48.059h3.378l.217 1.075a7.94 7.94 0 0 1 2.103-.982c.72-.205 1.326-.312 1.818-.312h.98c.989 0 1.78.295 2.376.885.597.588.893 1.37.893 2.347v4.957c0 1.079-.309 1.923-.925 2.533-.618.611-1.471.915-2.56.915h-4.467zm-12.58-12.607c-.58 0-.871.288-.871.859v1.178h3.703v-1.178c0-.571-.29-.859-.872-.859zm-1.417 9.159c-.986 0-1.778-.296-2.374-.885-.595-.586-.892-1.37-.892-2.348V51.29c0-1.077.308-1.92.925-2.533.617-.61 1.47-.916 2.56-.916h4.357c1.09 0 1.942.307 2.561.916.616.612.924 1.456.924 2.533v3.987h-7.514v.862a.741.741 0 0 0 .761.753c1.438 0 3.544-.107 6.317-.323v2.694c-2.802.288-5.344.431-7.625.431zm-6.098-11.635v11.418H8.155v-8.51H4.233v8.51H.42V48.06z"/></g><g><path fill="#fff" d="M164.645 19.342c.28 0 .51-.227.51-.505v-3.77c0-.277-.223-.45-.496-.382l-9.153 2.261a.683.683 0 0 0-.494.627v1.264c0 .278.23.505.51.505zm3.98 22.954V21.977h-5.58l-7.048 12.482V21.977h-5.284v20.32h5.58l7.048-12.483v12.482zm-21.263-20.319h-5.275v20.32h5.275zm-12.66 14.515c0 1.16-.585 1.74-1.758 1.74h-5.567v-5.224h5.567c1.173 0 1.759.58 1.759 1.742zM127.38 21.98h-5.285V42.3h12.038c2.058 0 3.55-.46 4.479-1.38.929-.92 1.395-2.394 1.395-4.426v-1.742c0-2.033-.466-3.507-1.395-4.427-.93-.919-2.422-1.38-4.479-1.38h-6.753zM82.328 38.231H71.323v-4.208h8.657v-4.064h-8.657v-3.918h11.005v-4.064H66.041v20.32h16.287zm-25.494 4.065V26.042h6.16v-4.064H45.396v4.064h6.159v16.254zM36.27 28.074l2.347 6.832H33.92zm-3.67 10.594h7.337l1.322 3.628h5.722l-7.778-20.319h-5.868l-7.776 20.32h5.722zm-14.572-7.69v11.318h5.282V21.977h-5.576l-5.868 10.74-5.87-10.74H.42v20.32h5.282v-11.32l4.11 7.255h4.108z"/></g><g><path fill="#fff" d="M114.748 28.762c-.619-.044-2.217-1.962-3.263-5.582l.89-.146c1.253-.211 2.081-1.494 1.85-2.862-.233-1.355-1.424-2.303-2.698-2.093l-.906.15c-.225-3.467.45-5.83.975-6.517a.67.67 0 0 1 .196-.193c.688.09 2.919 2.795 3.874 8.349.901 5.256-.24 8.611-.918 8.894zM95.04 26.724c-1.063.16-2.767.457-4.275.769l-1.137-6.62a50.683 50.683 0 0 0 1.919-.304l.603-.1c6.14-1.041 10.992-2.702 14.882-5.118-.129 1.868-.011 3.909.331 5.908.331 1.927.898 3.906 1.664 5.65-4.059-.901-8.673-.973-13.987-.185zm24.17-7.453c-.983-5.725-3.973-11.932-7.984-11.261-.91.153-1.657.634-2.262 1.342-.04.032-.081.058-.118.094-3.897 3.788-9.396 6.176-17.301 7.515l-.608.102c-1.399.239-2.1.358-3.516.443-.509.03-.981.275-1.298.67-.317.394-.45.906-.364 1.402l.558 3.255-.014.001c-1.011.168-1.673 1.22-1.48 2.343.192 1.126 1.168 1.9 2.18 1.73l.014-.002.522 3.043c.084.495.376.93.802 1.2.426.271.948.352 1.436.221a34.194 34.194 0 0 1 1.63-.374c.284 1.684.662 4.306.581 5.968-.14 2.867-.012 3.957.016 4.146.12.842.821 1.45 1.645 1.509l-.018.012.136-.001.01.001.019-.001c.259-.002.377-.002.47-.01v.003l.055-.01c.085-.01.179-.03.395-.065l3.212-.539c.987-.166 1.626-1.245 1.425-2.415-.15-.872-.726-1.544-1.42-1.76.583-.43.903-1.254.753-2.128-.15-.87-.727-1.545-1.42-1.76.582-.43.902-1.252.752-2.127-.143-.828-.67-1.467-1.313-1.718 6.569-.83 11.884-.234 16.185 1.85.23.111 1.064.4 1.862.368.198-.009.395-.017.59-.049 1.09-.183 3.045-1.059 3.878-4.873.5-2.283.496-5.168-.01-8.125z"/></g><g><path fill="#ffc800" d="M45.33 7.941c0-.633-.319-.95-.958-.95h-3.194v2.375h3.194c.64 0 .959-.317.959-.95zm-4.15-3.16h3.829c1.116 0 1.927.249 2.432.747.505.5.758 1.3.758 2.402v.473c0 1.102-.253 1.903-.758 2.402-.505.499-1.316.748-2.432.748h-6.7V.528h8.853v2.205h-5.981zm-12.424 6.94c-.532 0-1.08-.053-1.644-.158V9.435h1.436c.309 0 .522-.121.639-.363a.74.74 0 0 0 .08-.339.648.648 0 0 0-.08-.323L24.797.528h3.193l2.873 5.596L33.257.528h3.192l-4.07 8.67c-.372.83-.82 1.45-1.34 1.86-.575.442-1.336.663-2.283.663zM16.308 9.277c-.053.757-.297 1.353-.733 1.79-.436.436-.973.654-1.611.654a9.826 9.826 0 0 1-1.802-.158V9.435h.717c.202 0 .37-.069.503-.205a.756.756 0 0 0 .215-.505l.479-8.197h8.851v11.035h-2.87V2.735h-3.35zM9.095.37c.266 0 .744.053 1.435.158v2.128h-.638c-.16 0-.303.05-.43.15-.128.1-.224.207-.288.323L7.66 5.966l3.11 5.597H7.74L5.267 7.07H3.83v4.493H.96V.528h2.871v4.335h1.436l1.595-2.995A3.42 3.42 0 0 1 7.73.788C8.077.509 8.53.37 9.095.37z"/></g></g></svg>