<svg xmlns="http://www.w3.org/2000/svg" width="22" height="13" viewBox="0 0 22 13"><g><g><path fill="#fff" d="M10.554 12.455h1.29s.389-.043.588-.258c.183-.196.177-.566.177-.566s-.025-1.73.778-1.985c.791-.25 1.808 1.672 2.885 2.412.815.56 1.434.437 1.434.437l2.88-.04s1.508-.093.793-1.278c-.058-.097-.416-.876-2.142-2.478-1.806-1.677-1.564-1.406.611-4.306 1.326-1.766 1.856-2.844 1.69-3.306-.158-.44-1.132-.324-1.132-.324l-3.244.02s-.24-.032-.419.074c-.174.104-.286.348-.286.348s-.514 1.367-1.198 2.53c-1.444 2.452-2.022 2.581-2.258 2.429-.55-.355-.412-1.426-.412-2.187 0-2.377.36-3.368-.702-3.624-.352-.085-.612-.14-1.514-.15C9.216.19 8.236.206 7.68.478c-.368.18-.653.583-.48.606.215.029.7.131.958.481.332.453.32 1.468.32 1.468s.192 2.798-.446 3.146c-.437.238-1.037-.249-2.324-2.474-.66-1.14-1.158-2.4-1.158-2.4s-.096-.235-.268-.36C4.076.791 3.785.742 3.785.742L.703.763S.241.776.07.977c-.15.18-.012.55-.012.55s2.413 5.645 5.146 8.49c2.505 2.609 5.35 2.438 5.35 2.438"/></g></g></svg>